<?xml version="1.0" standalone="no"?>
<!DOCTYPE svg PUBLIC "-//W3C//DTD SVG 20010904//EN"
 "http://www.w3.org/TR/2001/REC-SVG-20010904/DTD/svg10.dtd">
<svg version="1.0" xmlns="http://www.w3.org/2000/svg"
 width="1660.000000pt" height="1660.000000pt" viewBox="0 0 1660.000000 1660.000000"
 preserveAspectRatio="xMidYMid meet">
<metadata>
Created by potrace 1.14, written by Peter Selinger 2001-2017
</metadata>
<g transform="translate(0.000000,1660.000000) scale(0.100000,-0.100000)"
fill="#000000" stroke="none">
<path d="M11144 15035 c-245 -32 -482 -98 -758 -211 -115 -47 -422 -198 -514
-253 -29 -17 -55 -31 -57 -31 -3 0 -234 -143 -275 -170 -261 -175 -436 -303
-655 -479 -71 -57 -132 -107 -135 -110 -3 -3 -52 -47 -110 -96 -58 -50 -112
-97 -121 -105 -34 -33 -168 -151 -173 -153 -2 -1 -39 30 -82 68 -42 39 -82 75
-88 80 -12 11 -163 142 -206 179 -134 115 -411 328 -580 447 -555 389 -1074
647 -1535 763 -97 24 -112 27 -185 40 -82 14 -99 16 -175 23 -134 12 -359 6
-440 -12 -11 -3 -31 -7 -45 -9 -83 -14 -241 -66 -324 -108 -330 -166 -578
-485 -726 -937 -52 -159 -94 -329 -115 -476 -4 -22 -8 -47 -10 -55 -2 -8 -7
-46 -11 -85 -3 -38 -8 -79 -10 -90 -12 -62 -19 -267 -19 -530 0 -259 4 -372
19 -545 2 -19 7 -73 11 -120 4 -47 9 -93 11 -104 2 -10 6 -44 9 -75 7 -59 9
-79 20 -151 9 -63 14 -96 20 -127 2 -16 11 -68 19 -118 8 -49 17 -99 19 -110
3 -11 7 -36 11 -55 3 -19 8 -46 11 -60 3 -14 8 -41 11 -60 7 -41 52 -248 59
-271 5 -13 -23 -25 -142 -64 -1340 -434 -2317 -1045 -2743 -1715 -91 -144
-186 -365 -205 -483 -3 -17 -10 -58 -16 -89 -11 -63 -13 -239 -4 -303 36 -247
110 -434 261 -657 92 -137 152 -207 303 -359 134 -133 175 -168 331 -288 504
-386 1188 -723 2023 -998 161 -53 206 -71 202 -83 -2 -8 -7 -31 -10 -50 -3
-19 -15 -75 -25 -125 -11 -49 -22 -103 -25 -120 -15 -83 -46 -253 -49 -271 -2
-12 -7 -45 -11 -75 -4 -30 -9 -57 -11 -61 -3 -4 -6 -26 -9 -50 -4 -41 -6 -59
-20 -153 -3 -22 -8 -62 -10 -90 -3 -27 -7 -63 -9 -80 -3 -16 -8 -66 -11 -110
-4 -44 -8 -96 -10 -115 -29 -302 -24 -767 10 -1077 7 -61 22 -164 29 -198 2
-11 7 -40 11 -65 24 -154 113 -459 170 -585 14 -30 25 -56 25 -58 0 -11 115
-215 147 -260 219 -312 494 -491 848 -552 105 -18 351 -25 458 -12 360 43 716
160 1137 374 102 52 192 100 200 106 8 7 31 21 50 31 79 43 313 193 435 278
125 87 365 265 375 277 3 4 25 22 50 41 119 91 380 313 495 421 28 26 61 57
74 68 26 23 25 23 80 -29 9 -8 70 -62 136 -120 66 -58 129 -113 140 -124 54
-50 418 -335 550 -431 639 -464 1304 -779 1821 -861 20 -3 45 -7 55 -9 10 -2
60 -7 111 -11 488 -39 857 88 1142 395 67 71 84 93 132 166 26 38 54 81 64 95
29 44 116 231 154 332 45 124 88 283 131 488 1 8 6 40 10 70 4 30 9 64 11 75
4 18 10 67 20 160 25 237 25 854 0 1060 -2 17 -7 62 -11 100 -8 88 -14 150
-20 195 -14 112 -27 208 -31 230 -2 14 -6 36 -8 50 -3 14 -14 79 -25 145 -12
66 -23 132 -26 148 -3 15 -7 37 -9 50 -11 60 -67 329 -72 341 -3 9 47 30 178
74 349 116 592 208 878 334 109 48 473 230 544 272 43 25 80 46 82 46 8 0 216
131 324 203 434 290 762 628 942 967 45 85 111 250 123 306 30 144 37 205 38
309 0 285 -94 559 -287 830 -146 205 -347 409 -581 589 -55 43 -107 83 -115
89 -36 29 -263 178 -340 224 -469 280 -978 505 -1613 715 l-188 62 4 35 c3 20
10 59 17 86 6 28 14 61 16 75 3 14 13 70 24 125 24 126 60 331 65 370 6 44 16
114 20 133 1 10 6 46 10 82 3 36 8 72 10 80 5 19 12 91 30 285 26 292 26 821
0 1065 -5 46 -33 248 -39 285 -31 181 -96 414 -159 571 -214 531 -558 834
-1042 919 -121 21 -365 26 -491 10z m379 -677 c220 -40 363 -159 485 -404 56
-112 122 -314 146 -449 17 -92 36 -207 41 -255 4 -30 8 -68 10 -85 22 -177 22
-690 0 -895 -2 -19 -6 -70 -10 -113 -4 -44 -8 -88 -10 -99 -2 -11 -7 -47 -10
-81 -3 -34 -8 -73 -10 -87 -2 -14 -7 -45 -10 -69 -3 -23 -7 -55 -10 -70 -2
-14 -11 -66 -19 -116 -8 -49 -17 -99 -19 -110 -3 -11 -8 -40 -12 -65 -9 -56
-13 -78 -20 -110 -3 -14 -7 -34 -9 -45 -3 -11 -12 -54 -21 -95 -9 -41 -17 -83
-18 -92 -2 -22 -8 -22 -78 -4 -60 16 -504 112 -559 121 -30 5 -84 15 -165 30
-18 3 -61 11 -170 29 -16 3 -41 8 -55 10 -14 3 -43 8 -65 11 -22 3 -65 10 -95
15 -76 13 -127 20 -245 35 -11 2 -58 8 -105 14 -140 19 -137 19 -294 37 -33 3
-67 8 -75 9 -9 2 -19 4 -23 4 -4 1 -60 72 -124 159 -320 428 -741 932 -1068
1277 l-76 80 53 50 c273 258 674 575 992 786 469 311 904 506 1270 569 109 19
294 23 378 8z m-6008 -13 c22 -4 60 -11 85 -17 25 -5 53 -11 62 -13 188 -39
524 -176 793 -323 269 -148 683 -430 916 -625 15 -12 46 -38 70 -57 61 -49
303 -258 368 -317 l54 -50 -34 -35 c-98 -101 -293 -318 -409 -453 -57 -66
-115 -133 -129 -150 -14 -16 -64 -77 -111 -135 -47 -58 -91 -111 -98 -118 -7
-8 -25 -30 -40 -50 -15 -21 -29 -39 -32 -42 -3 -3 -28 -34 -55 -70 -28 -35
-55 -71 -62 -80 -7 -8 -26 -33 -42 -55 -17 -22 -34 -44 -39 -50 -4 -5 -53 -71
-108 -146 l-101 -135 -46 -2 c-25 -2 -54 -4 -64 -6 -10 -2 -46 -7 -78 -11 -33
-3 -105 -13 -160 -20 -55 -8 -122 -16 -150 -20 -54 -7 -105 -14 -144 -20 -13
-2 -45 -7 -70 -11 -53 -7 -66 -9 -181 -28 -47 -8 -103 -17 -125 -21 -80 -11
-640 -126 -757 -155 -67 -17 -129 -30 -138 -30 -16 0 -31 48 -56 175 -18 95
-46 243 -54 290 -6 33 -15 83 -20 110 -10 54 -15 94 -39 265 -36 262 -49 473
-50 780 0 210 1 241 13 405 11 145 38 313 72 455 100 420 278 676 519 746 33
9 82 20 110 24 58 8 272 5 330 -5z m2847 -1894 c2 -5 37 -45 78 -88 137 -144
239 -258 407 -453 150 -174 326 -395 324 -406 0 -5 -16 -8 -34 -7 -430 21
-1209 21 -1589 -1 -23 -1 -34 2 -31 9 8 12 64 86 78 101 5 6 21 26 35 44 34
45 219 271 239 291 9 9 25 27 35 40 51 64 187 217 272 309 34 36 83 89 110
118 46 50 68 63 76 43z m501 -1625 c198 -6 334 -12 457 -21 36 -2 112 -7 170
-11 58 -4 114 -8 125 -9 11 -1 39 -3 61 -4 41 -1 42 -2 118 -112 42 -61 76
-114 76 -119 0 -5 4 -10 8 -12 4 -1 26 -32 49 -68 23 -36 51 -78 63 -95 136
-196 468 -751 665 -1110 78 -141 291 -559 397 -777 l37 -76 -169 -338 c-207
-415 -364 -707 -548 -1018 -191 -324 -409 -670 -553 -878 -41 -59 -78 -114
-84 -123 -6 -9 -31 -17 -70 -20 -33 -3 -82 -7 -110 -10 -27 -2 -97 -7 -155
-10 -58 -4 -125 -8 -150 -10 -293 -21 -1257 -28 -1585 -11 -93 4 -199 9 -234
11 -36 2 -101 6 -145 9 -45 4 -117 9 -161 12 -44 4 -93 7 -109 7 -22 0 -35 10
-57 41 -16 23 -32 46 -37 51 -23 29 -349 528 -387 593 -6 9 -26 42 -45 73 -53
84 -50 80 -183 304 -146 248 -228 393 -352 626 -95 180 -335 667 -335 682 0
41 525 1050 670 1287 5 8 30 51 56 95 154 264 483 779 616 965 10 14 29 25 45
26 25 2 59 4 228 19 28 3 106 7 175 11 69 3 141 7 160 9 19 2 148 7 285 11
138 3 251 7 252 8 4 3 582 -2 756 -8z m-2783 -166 c-6 -11 -38 -63 -72 -117
-120 -192 -292 -481 -381 -638 -49 -88 -99 -176 -110 -195 -29 -52 -180 -335
-220 -414 l-35 -69 -17 39 c-17 41 -123 321 -150 395 -40 111 -167 486 -170
503 -3 11 -16 54 -29 95 -14 42 -31 99 -39 127 l-15 51 47 11 c231 54 620 134
761 156 19 3 46 8 60 10 59 11 89 17 150 26 36 6 76 13 90 15 14 3 45 8 70 11
25 3 47 8 49 10 13 12 20 1 11 -16z m4590 6 c69 -8 352 -55 435 -72 17 -3 100
-19 185 -36 85 -16 164 -32 175 -34 11 -2 29 -6 40 -8 11 -3 54 -12 95 -21 41
-10 91 -21 110 -25 19 -4 58 -13 86 -20 l52 -13 -10 -36 c-42 -156 -194 -617
-288 -871 -34 -91 -71 -191 -83 -222 -11 -32 -24 -58 -28 -58 -5 0 -30 44 -57
98 -28 53 -66 126 -86 160 -20 35 -36 66 -36 68 0 3 -45 84 -100 180 -55 96
-100 176 -100 178 0 2 -29 52 -65 111 -36 59 -65 109 -65 111 0 3 -9 17 -19
32 -35 51 -301 480 -301 487 0 3 4 4 8 1 4 -2 28 -7 52 -10z m2375 -594 c133
-50 286 -112 353 -143 35 -16 65 -29 67 -29 8 0 166 -75 290 -137 745 -374
1249 -823 1355 -1208 57 -207 -21 -442 -225 -681 -198 -232 -480 -452 -866
-675 -136 -79 -579 -299 -601 -299 -8 0 -18 -4 -24 -9 -14 -13 -300 -127 -474
-188 -176 -62 -389 -133 -399 -133 -4 0 -24 57 -45 128 -38 126 -180 559 -196
597 -14 35 -41 108 -57 155 -8 25 -21 59 -29 77 -8 17 -14 34 -14 37 0 14
-138 359 -215 541 -7 17 -25 59 -40 95 -15 36 -35 83 -45 105 -53 116 -52 112
-36 144 31 59 226 533 299 728 127 335 214 589 328 963 17 58 33 108 35 112 4
6 366 -115 539 -180z m-8840 116 c54 -195 240 -743 330 -973 82 -210 182 -460
197 -495 11 -25 26 -58 33 -75 7 -16 34 -78 59 -136 l45 -105 -70 -164 c-102
-237 -206 -495 -292 -730 -75 -204 -176 -491 -182 -520 -3 -17 -60 -196 -80
-255 -7 -22 -21 -68 -31 -102 -11 -41 -22 -63 -31 -63 -55 0 -734 250 -943
348 -265 122 -440 211 -575 292 -27 16 -63 37 -80 46 -16 9 -95 60 -175 112
-260 172 -490 372 -619 538 -34 43 -65 84 -70 90 -23 29 -89 156 -109 209 -30
80 -33 96 -37 190 -4 117 25 216 106 365 88 159 304 384 534 555 44 33 82 62
85 65 16 17 255 168 369 234 143 83 397 212 521 266 41 18 94 41 116 51 75 34
267 111 364 147 142 52 493 171 506 172 6 0 19 -28 29 -62z m7293 -2743 c140
-359 370 -1049 353 -1059 -8 -5 -366 -87 -406 -93 -16 -2 -43 -8 -60 -13 -16
-4 -46 -11 -65 -14 -19 -3 -46 -8 -60 -11 -14 -3 -38 -8 -55 -10 -16 -3 -64
-12 -105 -20 -41 -8 -91 -17 -110 -20 -19 -3 -111 -18 -205 -34 -93 -15 -171
-27 -173 -26 -2 2 28 52 66 111 269 427 515 857 705 1231 28 57 54 99 58 95 3
-4 29 -65 57 -137z m-6138 -50 c34 -66 75 -142 90 -170 15 -27 44 -81 65 -120
70 -127 296 -507 436 -732 77 -121 139 -223 139 -226 0 -2 -19 -1 -42 3 -24 5
-62 11 -86 14 -36 5 -165 26 -252 41 -14 3 -63 12 -110 20 -93 16 -111 20
-185 35 -27 6 -61 12 -75 15 -29 5 -64 13 -100 21 -14 3 -45 10 -70 14 -70 14
-313 71 -317 75 -2 1 3 21 11 46 8 24 31 98 51 164 85 280 206 626 336 964
l10 24 18 -34 c9 -19 46 -88 81 -154z m6673 -1687 c18 -84 37 -168 41 -188 2
-14 11 -59 19 -100 19 -93 45 -235 51 -275 3 -16 7 -48 11 -70 15 -102 26
-184 31 -230 2 -27 6 -59 9 -70 2 -11 7 -58 10 -105 4 -47 8 -96 11 -110 22
-134 22 -709 -1 -905 -2 -22 -7 -65 -10 -95 -3 -30 -8 -64 -10 -75 -2 -11 -7
-37 -10 -58 -28 -204 -107 -453 -191 -606 -159 -289 -374 -389 -754 -348 -447
48 -1063 344 -1685 811 -108 80 -362 281 -375 296 -3 3 -34 30 -70 60 -36 30
-67 57 -70 60 -3 3 -45 41 -95 85 -49 44 -93 84 -96 89 -4 4 28 45 71 90 42
44 123 133 180 196 56 63 117 131 134 150 17 19 56 64 86 100 30 36 57 67 60
70 19 19 171 205 294 360 80 102 150 190 155 196 6 7 69 91 140 188 113 152
135 176 159 177 15 0 41 2 57 4 17 2 55 7 85 10 30 4 69 8 85 11 17 2 50 6 75
9 47 5 86 11 148 20 20 2 57 7 82 10 40 5 481 77 555 91 184 34 346 66 420 83
50 11 101 22 115 25 25 4 42 8 190 45 41 11 78 20 81 20 4 1 9 -9 12 -21z
m-7293 2 c19 -6 51 -13 70 -16 19 -3 38 -8 41 -10 3 -2 41 -11 85 -20 107 -22
102 -21 159 -34 28 -7 64 -14 80 -16 17 -3 48 -9 70 -14 43 -10 177 -36 235
-45 19 -3 42 -8 50 -10 8 -3 44 -9 80 -14 36 -5 106 -16 155 -25 184 -30 314
-49 423 -61 29 -4 61 -8 71 -10 10 -2 63 -8 117 -15 55 -6 117 -14 139 -17 22
-3 52 -7 67 -7 22 -2 50 -33 168 -190 77 -103 175 -231 218 -284 42 -53 86
-109 97 -123 44 -59 289 -352 405 -483 121 -139 159 -181 276 -306 33 -36 75
-80 92 -99 36 -38 38 -46 18 -58 -8 -4 -38 -31 -68 -58 -29 -28 -87 -80 -128
-115 -41 -36 -77 -67 -80 -70 -3 -3 -57 -49 -120 -101 -282 -233 -580 -447
-850 -609 -364 -218 -762 -384 -1024 -426 -21 -3 -48 -8 -60 -11 -54 -13 -304
-11 -371 3 -239 51 -397 215 -520 541 -47 123 -102 357 -120 512 -3 25 -8 57
-10 71 -4 24 -11 118 -20 265 -6 88 -6 396 0 495 6 119 16 262 20 295 2 17 7
57 10 90 3 33 8 71 10 85 2 14 6 46 9 73 9 76 18 141 21 157 1 8 6 35 10 60
41 270 113 610 128 610 7 0 28 -5 47 -10z m3090 -396 c393 -12 1079 -7 1317 9
31 3 40 0 35 -9 -7 -13 -222 -285 -232 -294 -3 -3 -39 -45 -80 -95 -41 -49
-77 -92 -80 -95 -3 -3 -52 -59 -110 -125 -58 -66 -114 -129 -125 -141 -11 -11
-60 -63 -108 -116 l-88 -95 -72 76 c-40 41 -79 82 -87 91 -28 28 -195 215
-260 290 -36 41 -67 77 -71 80 -5 5 -245 295 -272 330 -63 80 -77 98 -77 102
0 3 17 4 38 2 20 -2 143 -6 272 -10z"/>
<path d="M8197 10111 c-9 -15 -14 -31 -11 -34 11 -11 -21 -34 -57 -42 -19 -4
-47 -14 -62 -22 -15 -7 -32 -11 -37 -8 -6 4 -10 -47 -11 -137 -1 -180 -2 -188
-24 -204 -44 -33 -85 -5 -86 59 -3 145 -6 192 -15 195 -18 5 -129 -96 -181
-166 -15 -20 -30 -39 -33 -42 -3 -3 -17 -26 -30 -52 -14 -27 -28 -48 -31 -48
-3 0 -6 -6 -7 -12 0 -7 -12 -44 -25 -81 -14 -37 -26 -70 -26 -72 -1 -3 -1 -6
-2 -7 -1 -2 -3 -25 -5 -53 -4 -60 -13 -99 -20 -92 -3 3 -24 -15 -47 -40 -48
-52 -51 -77 -15 -128 73 -107 322 -186 638 -201 388 -19 623 0 844 68 165 50
283 143 259 205 -8 20 -57 73 -67 73 -13 0 -39 32 -41 49 -1 9 -6 43 -10 76
-5 33 -8 63 -7 68 1 4 -3 7 -8 7 -5 0 -9 3 -8 8 2 11 -14 66 -23 77 -4 6 -8
15 -9 20 -1 6 -7 21 -13 35 -6 14 -10 28 -9 33 1 4 -2 7 -7 7 -5 0 -16 16 -25
35 -9 19 -21 35 -27 35 -6 0 -7 5 -4 10 3 6 1 10 -4 10 -6 0 -11 5 -11 11 0
15 -177 187 -181 176 -1 -1 -3 -47 -5 -102 -2 -55 -6 -114 -9 -132 -8 -46 -50
-58 -85 -23 -17 17 -19 34 -19 167 0 106 -4 150 -13 159 -7 6 -46 22 -85 34
-65 20 -72 25 -69 45 3 14 -4 32 -15 44 -18 19 -31 21 -132 21 l-113 0 -17
-29z"/>
<path d="M7586 8878 c-9 -12 -16 -28 -16 -35 0 -7 -4 -13 -8 -13 -4 0 -7 -12
-6 -27 1 -16 -3 -36 -8 -45 -5 -10 -5 -18 -1 -18 4 0 9 -26 10 -58 2 -52 8
-99 14 -112 1 -3 3 -9 4 -15 6 -31 57 -138 68 -143 4 -2 7 -8 7 -14 0 -9 25
-44 63 -88 24 -28 44 -65 62 -117 11 -29 23 -53 27 -53 4 0 7 -4 6 -8 -4 -12
66 -122 108 -171 64 -73 166 -142 269 -182 38 -15 140 -24 192 -18 53 7 164
38 173 49 3 3 28 19 55 34 73 42 171 144 222 231 19 32 53 103 53 110 0 12 51
110 66 125 36 38 63 78 57 84 -3 3 -1 6 4 6 16 0 78 133 74 158 -1 6 2 12 6
12 9 0 11 14 17 143 2 53 0 100 -5 103 -5 3 -9 16 -9 29 0 44 -59 63 -120 38
-23 -9 -106 -28 -170 -38 -14 -2 -45 -7 -70 -11 -25 -4 -66 -8 -92 -8 -27 -1
-48 -4 -48 -7 0 -7 -110 -11 -285 -12 -151 0 -265 5 -265 13 0 3 -15 5 -32 5
-70 1 -172 19 -301 51 -54 13 -100 24 -102 24 -2 0 -11 -10 -19 -22z"/>
<path d="M7750 7976 c-19 -8 -50 -19 -67 -26 -23 -8 -33 -19 -34 -33 -7 -140
-2 -687 6 -688 6 -1 311 -2 678 -2 431 -1 671 2 675 8 3 5 6 166 7 357 l0 348
-30 6 c-16 3 -37 12 -45 18 -20 16 -80 21 -80 7 0 -6 -30 -42 -67 -80 -143
-144 -318 -222 -483 -214 -57 2 -105 9 -105 13 0 1 -11 3 -24 6 -35 6 -147 60
-198 96 -46 31 -168 149 -188 181 -9 14 -14 14 -45 3z"/>
<path d="M7299 7786 c-53 -23 -110 -53 -127 -64 -16 -12 -33 -22 -36 -22 -3 0
-27 -16 -53 -36 -49 -36 -158 -144 -147 -144 3 0 -1 -7 -8 -15 -7 -8 -18 -21
-25 -28 -17 -21 -67 -121 -65 -129 1 -5 -2 -8 -6 -8 -4 0 -14 -17 -21 -37 -7
-21 -16 -47 -21 -58 -37 -87 -75 -262 -79 -362 -2 -71 0 -86 18 -109 12 -15
21 -23 21 -19 0 4 6 3 13 -3 6 -6 17 -11 22 -12 24 -3 61 -13 70 -20 6 -4 33
-13 60 -20 28 -7 54 -16 60 -19 5 -3 16 -6 25 -6 8 -1 30 -5 49 -10 29 -6 33
-5 28 9 -4 9 -3 16 1 16 4 0 7 77 7 171 0 94 3 173 7 176 5 2 6 8 4 11 -2 4
12 32 32 62 47 70 117 108 212 114 36 3 69 5 73 5 13 1 7 601 -6 601 -7 0 -55
-20 -108 -44z"/>
<path d="M9243 7529 l2 -301 82 -3 c52 -2 97 -10 125 -23 68 -30 134 -101 141
-152 2 -8 6 -20 10 -27 4 -6 3 -14 -3 -18 -6 -4 -7 -12 -3 -18 4 -7 8 -79 9
-162 1 -168 1 -168 72 -144 20 7 44 13 52 14 8 1 28 7 44 14 16 6 36 13 45 15
29 6 115 47 123 59 13 20 9 136 -7 222 -19 105 -64 257 -93 311 -6 11 -22 44
-37 74 -14 30 -31 64 -38 74 -39 63 -165 188 -232 230 -66 43 -258 136 -278
136 -15 0 -16 -30 -14 -301z"/>
<path d="M7380 7002 c0 -5 -16 -7 -35 -6 l-35 3 0 -194 0 -195 23 -1 c22 0 48
-3 122 -14 22 -3 67 -7 100 -10 33 -3 74 -8 90 -10 177 -27 1085 -28 1360 -1
17 2 66 7 109 10 43 4 88 10 100 12 12 2 45 7 75 10 103 11 96 -4 96 207 -1
103 -4 189 -8 193 -4 4 -7 2 -7 -4 0 -11 -43 -7 -63 5 -6 4 -7 1 -2 -6 6 -10
3 -11 -13 -2 -13 7 -23 7 -27 1 -3 -5 -15 -6 -28 -1 -12 5 -31 5 -42 1 -11 -4
-28 -3 -37 2 -10 5 -18 5 -18 1 0 -10 -41 -10 -57 0 -7 4 -14 3 -18 -2 -3 -7
-15 -7 -29 -1 -13 5 -26 6 -29 3 -9 -8 -107 -9 -107 0 0 4 -8 4 -17 -1 -10 -5
-27 -6 -38 -2 -11 4 -30 4 -42 -1 -13 -5 -25 -4 -29 2 -3 6 -10 6 -17 1 -7 -5
-21 -6 -32 -2 -11 4 -30 4 -42 -1 -13 -5 -25 -4 -29 2 -3 6 -10 6 -17 1 -7 -5
-21 -6 -32 -2 -11 4 -30 4 -42 -1 -13 -5 -25 -4 -29 2 -3 6 -10 6 -17 1 -7 -5
-21 -6 -32 -2 -11 4 -30 4 -42 -1 -13 -5 -25 -4 -29 2 -3 6 -10 6 -17 1 -7 -5
-21 -6 -32 -2 -11 4 -30 4 -42 -1 -13 -5 -25 -4 -28 2 -4 5 -12 6 -18 2 -6 -4
-21 -7 -32 -7 -11 0 -26 3 -32 7 -6 4 -14 3 -18 -2 -3 -6 -15 -7 -28 -2 -12 5
-31 5 -42 1 -11 -4 -28 -3 -37 2 -10 5 -18 5 -18 1 0 -10 -41 -10 -57 0 -7 4
-14 3 -18 -2 -3 -6 -15 -7 -28 -2 -12 5 -31 5 -42 1 -11 -4 -25 -3 -32 2 -7 5
-14 5 -17 -1 -4 -6 -15 -7 -29 -2 -12 5 -32 5 -44 0 -13 -5 -25 -4 -28 2 -4 5
-12 6 -18 2 -16 -10 -47 -11 -47 -2 0 4 -13 4 -30 -1 -18 -5 -32 -5 -36 1 -3
6 -10 6 -17 1 -7 -5 -21 -6 -32 -2 -11 4 -30 4 -41 -1 -12 -4 -26 -3 -32 3 -6
6 -12 6 -16 -1 -4 -6 -15 -7 -29 -2 -12 5 -31 5 -42 1 -11 -4 -28 -3 -37 2
-10 5 -18 5 -18 0z"/>
</g>
</svg>
